<mxfile host="65bd71144e">
    <diagram name="Page-1" id="3e8102d1-ef87-2e61-34e1-82d9a586fe2e">
        <mxGraphModel dx="1109" dy="1423" grid="1" gridSize="10" guides="1" tooltips="1" connect="1" arrows="1" fold="1" page="1" pageScale="1" pageWidth="1100" pageHeight="850" background="none" math="0" shadow="0">
            <root>
                <mxCell id="0"/>
                <mxCell id="1" parent="0"/>
                <mxCell id="brf7tR4pHE1us93a3u3g-6" value="&lt;font style=&quot;font-size: 28px;&quot;&gt;Compliance&lt;br style=&quot;font-size: 28px;&quot;&gt;Warnings&lt;/font&gt;" style="text;html=1;strokeColor=none;fillColor=none;align=center;verticalAlign=middle;whiteSpace=wrap;rounded=0;fontSize=28;fontColor=#CC6600;" parent="1" vertex="1">
                    <mxGeometry x="407.48" y="-623.18" width="144.95" height="80" as="geometry"/>
                </mxCell>
                <mxCell id="26" value="" style="verticalLabelPosition=bottom;verticalAlign=top;html=1;shape=mxgraph.basic.partConcEllipse;fillColor=#10739E;strokeColor=none;startAngle=0.625;endAngle=0.8761449798372287;arcWidth=0.4;rotation=135;fontSize=24;" parent="1" vertex="1">
                    <mxGeometry x="206.34" y="-473.08" width="391" height="380" as="geometry"/>
                </mxCell>
                <mxCell id="brf7tR4pHE1us93a3u3g-4" value="&lt;font style=&quot;font-size: 28px;&quot;&gt;Repo is Compliant&lt;/font&gt;" style="html=1;shape=mxgraph.infographic.ribbonSimple;notch1=20;notch2=20;fillColor=#10739E;strokeColor=none;align=center;verticalAlign=middle;fontColor=#ffffff;fontSize=24;fontStyle=1;" parent="1" vertex="1">
                    <mxGeometry x="666.75" y="-478.18000000000006" width="300" height="78.58" as="geometry"/>
                </mxCell>
                <mxCell id="brf7tR4pHE1us93a3u3g-12" value="Register &lt;i&gt;&lt;font color=&quot;#cccccc&quot;&gt;ISS&lt;/font&gt;&lt;/i&gt;" style="html=1;shape=mxgraph.infographic.ribbonSimple;notch1=20;notch2=20;fillColor=#10739E;strokeColor=none;align=center;verticalAlign=middle;fontColor=#ffffff;fontSize=28;fontStyle=1;" parent="1" vertex="1">
                    <mxGeometry x="966.75" y="-478.18" width="233.25" height="78.58" as="geometry"/>
                </mxCell>
                <mxCell id="brf7tR4pHE1us93a3u3g-8" value="" style="html=1;shape=mxgraph.infographic.ribbonSimple;notch1=0;notch2=20;fillColor=#10739E;strokeColor=none;align=center;verticalAlign=middle;fontColor=#ffffff;fontSize=24;fontStyle=1;rotation=90;" parent="1" vertex="1">
                    <mxGeometry x="304" y="-599.6" width="70" height="80" as="geometry"/>
                </mxCell>
                <mxCell id="brf7tR4pHE1us93a3u3g-2" value="" style="verticalLabelPosition=bottom;verticalAlign=top;html=1;shape=mxgraph.basic.partConcEllipse;fillColor=#10739E;strokeColor=none;startAngle=0.36994915843207826;endAngle=0.125;arcWidth=0.44;rotation=135;" parent="1" vertex="1">
                    <mxGeometry x="301.58" y="-760" width="356.75" height="365.46" as="geometry"/>
                </mxCell>
                <mxCell id="7" value="&lt;font style=&quot;font-size: 24px;&quot;&gt;&lt;span style=&quot;color: rgb(230, 230, 230); font-family: helvetica; font-size: 24px; font-style: normal; font-weight: 700; letter-spacing: normal; text-indent: 0px; text-transform: none; word-spacing: 0px; display: inline; float: none;&quot;&gt;I&lt;/span&gt;&lt;span style=&quot;font-family: helvetica; font-size: 24px; font-style: normal; letter-spacing: normal; text-indent: 0px; text-transform: none; word-spacing: 0px; display: inline; float: none;&quot;&gt;&lt;font color=&quot;#cccccc&quot;&gt;nnersource&lt;/font&gt;&lt;/span&gt;&lt;br style=&quot;font-family: helvetica; font-size: 24px; font-style: normal; font-weight: 700; letter-spacing: normal; text-indent: 0px; text-transform: none; word-spacing: 0px;&quot;&gt;&lt;span style=&quot;color: rgb(230, 230, 230); font-family: helvetica; font-size: 24px; font-style: normal; font-weight: 700; letter-spacing: normal; text-indent: 0px; text-transform: none; word-spacing: 0px; display: inline; float: none;&quot;&gt;R&lt;/span&gt;&lt;span style=&quot;font-family: helvetica; font-size: 24px; font-style: normal; letter-spacing: normal; text-indent: 0px; text-transform: none; word-spacing: 0px; display: inline; float: none;&quot;&gt;&lt;font color=&quot;#cccccc&quot;&gt;eady&lt;/font&gt;&lt;/span&gt;&lt;span style=&quot;color: rgb(230, 230, 230); font-family: helvetica; font-size: 24px; font-style: normal; font-weight: 700; letter-spacing: normal; text-indent: 0px; text-transform: none; word-spacing: 0px; display: inline; float: none;&quot;&gt; &lt;br&gt;R&lt;/span&gt;&lt;span style=&quot;font-family: helvetica; font-size: 24px; font-style: normal; letter-spacing: normal; text-indent: 0px; text-transform: none; word-spacing: 0px; display: inline; float: none;&quot;&gt;&lt;font color=&quot;#cccccc&quot;&gt;eport&lt;/font&gt;&lt;/span&gt;&lt;br style=&quot;font-family: helvetica; font-size: 24px; font-style: normal; font-weight: 700; letter-spacing: normal; text-indent: 0px; text-transform: none; word-spacing: 0px;&quot;&gt;&lt;br&gt;&lt;/font&gt;" style="rounded=0;whiteSpace=wrap;html=1;labelBackgroundColor=none;fontColor=#99FFFF;strokeColor=#333333;fillColor=#4D4D4D;fontSize=24;align=left;spacingLeft=10;" parent="1" vertex="1">
                    <mxGeometry x="480.49" y="-180" width="151.67" height="150" as="geometry"/>
                </mxCell>
                <mxCell id="29" value="" style="html=1;shape=mxgraph.infographic.ribbonSimple;notch1=0;notch2=20;fillColor=#10739E;strokeColor=none;align=center;verticalAlign=middle;fontColor=#ffffff;fontSize=24;fontStyle=1;rotation=90;" parent="1" vertex="1">
                    <mxGeometry x="538.83" y="-307" width="35" height="77" as="geometry"/>
                </mxCell>
                <mxCell id="8" value="&lt;font color=&quot;#333333&quot; style=&quot;font-size: 24px;&quot;&gt;&lt;b&gt;Repo Issue&lt;/b&gt;&lt;/font&gt;" style="rounded=0;whiteSpace=wrap;html=1;labelBackgroundColor=none;fontColor=#E6E6E6;strokeColor=#333333;fillColor=#B3B3B3;fontSize=24;" parent="1" vertex="1">
                    <mxGeometry x="480.49" y="-240" width="151.67" height="61" as="geometry"/>
                </mxCell>
                <mxCell id="brf7tR4pHE1us93a3u3g-5" value="&lt;font style=&quot;font-size: 28px;&quot;&gt;Mark Repo (Topic)&lt;/font&gt;" style="html=1;shape=mxgraph.infographic.ribbonSimple;notch1=20;notch2=20;fillColor=#10739E;strokeColor=none;align=center;verticalAlign=middle;fontColor=#ffffff;fontSize=24;fontStyle=1;" parent="1" vertex="1">
                    <mxGeometry x="60" y="-478.18000000000006" width="319" height="78.58" as="geometry"/>
                </mxCell>
                <mxCell id="brf7tR4pHE1us93a3u3g-3" value="&lt;font style=&quot;font-size: 28px;&quot;&gt;Evaluate Repo&lt;/font&gt;" style="html=1;shape=mxgraph.infographic.ribbonSimple;notch1=20;notch2=20;fillColor=#10739E;strokeColor=none;align=center;verticalAlign=middle;fontColor=#ffffff;fontSize=24;fontStyle=1;" parent="1" vertex="1">
                    <mxGeometry x="379" y="-478.18000000000006" width="287.75" height="80" as="geometry"/>
                </mxCell>
                <mxCell id="brf7tR4pHE1us93a3u3g-15" value="&lt;font size=&quot;1&quot; face=&quot;Courier New&quot; style=&quot;&quot;&gt;&lt;b style=&quot;font-size: 28px;&quot;&gt;/check&lt;/b&gt;&lt;/font&gt;" style="text;html=1;strokeColor=none;fillColor=none;align=center;verticalAlign=middle;whiteSpace=wrap;rounded=0;fontSize=24;fontColor=#FFFFFF;" parent="1" vertex="1">
                    <mxGeometry x="434.95" y="-729.6" width="87.75" height="42" as="geometry"/>
                </mxCell>
                <mxCell id="30" value="&lt;font style=&quot;font-size: 24px;&quot;&gt;&lt;span style=&quot;color: rgb(230, 230, 230); font-family: helvetica; font-size: 24px; font-style: normal; font-weight: 700; letter-spacing: normal; text-indent: 0px; text-transform: none; word-spacing: 0px; display: inline; float: none;&quot;&gt;I&lt;/span&gt;&lt;span style=&quot;font-family: helvetica; font-size: 24px; font-style: normal; letter-spacing: normal; text-indent: 0px; text-transform: none; word-spacing: 0px; display: inline; float: none;&quot;&gt;&lt;font color=&quot;#cccccc&quot;&gt;nnersource&lt;/font&gt;&lt;/span&gt;&lt;br style=&quot;font-family: helvetica; font-size: 24px; font-style: normal; font-weight: 700; letter-spacing: normal; text-indent: 0px; text-transform: none; word-spacing: 0px;&quot;&gt;&lt;span style=&quot;color: rgb(230, 230, 230); font-family: helvetica; font-size: 24px; font-style: normal; font-weight: 700; letter-spacing: normal; text-indent: 0px; text-transform: none; word-spacing: 0px; display: inline; float: none;&quot;&gt;R&lt;/span&gt;&lt;span style=&quot;font-family: helvetica; font-size: 24px; font-style: normal; letter-spacing: normal; text-indent: 0px; text-transform: none; word-spacing: 0px; display: inline; float: none;&quot;&gt;&lt;font color=&quot;#cccccc&quot;&gt;eady&lt;/font&gt;&lt;/span&gt;&lt;span style=&quot;color: rgb(230, 230, 230); font-family: helvetica; font-size: 24px; font-style: normal; font-weight: 700; letter-spacing: normal; text-indent: 0px; text-transform: none; word-spacing: 0px; display: inline; float: none;&quot;&gt; &lt;br&gt;R&lt;/span&gt;&lt;span style=&quot;font-family: helvetica; font-size: 24px; font-style: normal; letter-spacing: normal; text-indent: 0px; text-transform: none; word-spacing: 0px; display: inline; float: none;&quot;&gt;&lt;font color=&quot;#cccccc&quot;&gt;eport&lt;/font&gt;&lt;/span&gt;&lt;br style=&quot;font-family: helvetica; font-size: 24px; font-style: normal; font-weight: 700; letter-spacing: normal; text-indent: 0px; text-transform: none; word-spacing: 0px;&quot;&gt;&lt;br&gt;&lt;/font&gt;" style="rounded=0;whiteSpace=wrap;html=1;labelBackgroundColor=none;fontColor=#99FFFF;strokeColor=#333333;fillColor=#4D4D4D;fontSize=24;align=left;spacingLeft=10;" parent="1" vertex="1">
                    <mxGeometry x="1220" y="-483.18" width="151.67" height="150" as="geometry"/>
                </mxCell>
                <mxCell id="31" value="&lt;font color=&quot;#333333&quot; style=&quot;font-size: 24px;&quot;&gt;&lt;b&gt;JSON&lt;/b&gt;&lt;/font&gt;" style="rounded=0;whiteSpace=wrap;html=1;labelBackgroundColor=none;fontColor=#E6E6E6;strokeColor=#333333;fillColor=#B3B3B3;fontSize=24;" parent="1" vertex="1">
                    <mxGeometry x="1220" y="-543.18" width="151.67" height="61" as="geometry"/>
                </mxCell>
            </root>
        </mxGraphModel>
    </diagram>
</mxfile>